<?xml version="1.0" encoding="UTF-8" standalone="no"?>
<!DOCTYPE svg PUBLIC "-//W3C//DTD SVG 1.1//EN"
 "http://www.w3.org/Graphics/SVG/1.1/DTD/svg11.dtd">
<!-- Generated by graphviz version 2.43.0 (0)
 -->
<!-- Title: G Pages: 1 -->
<svg width="467pt" height="209pt"
 viewBox="0.00 0.00 467.00 208.50" xmlns="http://www.w3.org/2000/svg" xmlns:xlink="http://www.w3.org/1999/xlink">
<g id="graph0" class="graph" transform="scale(1 1) rotate(0) translate(4 204.5)">
<title>G</title>
<polygon fill="white" stroke="transparent" points="-4,4 -4,-204.5 463,-204.5 463,4 -4,4"/>
<g id="clust2" class="cluster">
<title>cluster_eecaf8d6</title>
<polygon fill="none" stroke="black" stroke-dasharray="1,5" points="106,-117.5 106,-192.5 451,-192.5 451,-117.5 106,-117.5"/>
<text text-anchor="middle" x="278.5" y="-177.3" font-family="Times,serif" font-size="14.00">File: main</text>
</g>
<!-- Legend -->
<g id="node1" class="node">
<title>Legend</title>
<polygon fill="none" stroke="black" points="1.5,-88.5 1.5,-105.5 326.5,-105.5 326.5,-88.5 1.5,-88.5"/>
<text text-anchor="start" x="98" y="-93.3" font-family="Times,serif" font-size="14.00">Code2flow Legend</text>
<polygon fill="none" stroke="black" points="1.5,-0.5 1.5,-88.5 326.5,-88.5 326.5,-0.5 1.5,-0.5"/>
<polygon fill="none" stroke="black" points="3.5,-65.5 3.5,-86.5 274.5,-86.5 274.5,-65.5 3.5,-65.5"/>
<text text-anchor="start" x="79" y="-72.3" font-family="Times,serif" font-size="14.00">Regular function</text>
<polygon fill="#cccccc" stroke="transparent" points="274.5,-65.5 274.5,-86.5 324.5,-86.5 324.5,-65.5 274.5,-65.5"/>
<polygon fill="none" stroke="black" points="274.5,-65.5 274.5,-86.5 324.5,-86.5 324.5,-65.5 274.5,-65.5"/>
<polygon fill="none" stroke="black" points="3.5,-44.5 3.5,-65.5 274.5,-65.5 274.5,-44.5 3.5,-44.5"/>
<text text-anchor="start" x="17" y="-51.3" font-family="Times,serif" font-size="14.00">Trunk function (nothing calls this)</text>
<polygon fill="#966f33" stroke="transparent" points="274.5,-44.5 274.5,-65.5 324.5,-65.5 324.5,-44.5 274.5,-44.5"/>
<polygon fill="none" stroke="black" points="274.5,-44.5 274.5,-65.5 324.5,-65.5 324.5,-44.5 274.5,-44.5"/>
<polygon fill="none" stroke="black" points="3.5,-23.5 3.5,-44.5 274.5,-44.5 274.5,-23.5 3.5,-23.5"/>
<text text-anchor="start" x="6.5" y="-30.3" font-family="Times,serif" font-size="14.00">Leaf function (this calls nothing else)</text>
<polygon fill="#6db33f" stroke="transparent" points="274.5,-23.5 274.5,-44.5 324.5,-44.5 324.5,-23.5 274.5,-23.5"/>
<polygon fill="none" stroke="black" points="274.5,-23.5 274.5,-44.5 324.5,-44.5 324.5,-23.5 274.5,-23.5"/>
<polygon fill="none" stroke="black" points="3.5,-2.5 3.5,-23.5 274.5,-23.5 274.5,-2.5 3.5,-2.5"/>
<text text-anchor="start" x="92.5" y="-9.3" font-family="Times,serif" font-size="14.00">Function call</text>
<polygon fill="none" stroke="black" points="274.5,-2.5 274.5,-23.5 324.5,-23.5 324.5,-2.5 274.5,-2.5"/>
<text text-anchor="start" x="293" y="-9.3" font-family="Times,serif" font-size="14.00">→</text>
<polygon fill="none" stroke="black" points="2.5,-1.5 2.5,-87.5 325.5,-87.5 325.5,-1.5 2.5,-1.5"/>
<polygon fill="none" stroke="black" points="0,0 0,-107 327,-107 327,0 0,0"/>
</g>
<!-- node_717442ea -->
<g id="node2" class="node">
<title>node_717442ea</title>
<path fill="#966f33" stroke="black" d="M201,-161.5C201,-161.5 126,-161.5 126,-161.5 120,-161.5 114,-155.5 114,-149.5 114,-149.5 114,-137.5 114,-137.5 114,-131.5 120,-125.5 126,-125.5 126,-125.5 201,-125.5 201,-125.5 207,-125.5 213,-131.5 213,-137.5 213,-137.5 213,-149.5 213,-149.5 213,-155.5 207,-161.5 201,-161.5"/>
<text text-anchor="middle" x="163.5" y="-139.8" font-family="Times,serif" font-size="14.00">0: (global)()</text>
</g>
<!-- node_52903ae5 -->
<g id="node3" class="node">
<title>node_52903ae5</title>
<path fill="#6db33f" stroke="black" d="M431,-161.5C431,-161.5 375,-161.5 375,-161.5 369,-161.5 363,-155.5 363,-149.5 363,-149.5 363,-137.5 363,-137.5 363,-131.5 369,-125.5 375,-125.5 375,-125.5 431,-125.5 431,-125.5 437,-125.5 443,-131.5 443,-137.5 443,-137.5 443,-149.5 443,-149.5 443,-155.5 437,-161.5 431,-161.5"/>
<text text-anchor="middle" x="403" y="-139.8" font-family="Times,serif" font-size="14.00">6: main()</text>
</g>
<!-- node_717442ea&#45;&gt;node_52903ae5 -->
<g id="edge1" class="edge">
<title>node_717442ea&#45;&gt;node_52903ae5</title>
<path fill="none" stroke="#56b4e9" stroke-width="2" d="M213.12,-143.5C213.12,-143.5 352.96,-143.5 352.96,-143.5"/>
<polygon fill="#56b4e9" stroke="#56b4e9" stroke-width="2" points="352.96,-147 362.96,-143.5 352.96,-140 352.96,-147"/>
</g>
</g>
</svg>
